<?xml version="1.0" encoding="utf-8"?>
<!-- Generator: Adobe Illustrator 27.5.0, SVG Export Plug-In . SVG Version: 6.00 Build 0)  -->
<svg version="1.1" xmlns="http://www.w3.org/2000/svg" xmlns:xlink="http://www.w3.org/1999/xlink" x="0px" y="0px"
	 viewBox="0 0 3710 3710" style="enable-background:new 0 0 3710 3710;" xml:space="preserve">
<g id="Background">
	<g>
		<g>
			<rect style="fill:#FFFFFF;" width="3710" height="3710"/>
		</g>
	</g>
</g>
<g id="Illustration">
	<g>
		
			<linearGradient id="SVGID_1_" gradientUnits="userSpaceOnUse" x1="3421.4297" y1="3470.666" x2="1429.2194" y2="1320.3434" gradientTransform="matrix(0.9998 0.021 -0.021 0.9998 11.7168 6.4391)">
			<stop  offset="0" style="stop-color:#DAE3FE"/>
			<stop  offset="1" style="stop-color:#E9EFFD"/>
		</linearGradient>
		<path style="fill:url(#SVGID_1_);" d="M3107.744,2317.278c-287.121,633.971-1015.342,893.576-1580.411,834.842
			c-154.287-16.037-464.715-48.303-702.701-283.016c-457.036-450.75-365.869-1370.972,91.902-1904.263
			c58.951-68.677,466.679-528.537,1086.595-509.251c453.869,14.12,767.119,277.249,805.192,310.01
			c48.098,41.386,154.037,139.556,248.134,293.744C3277.549,1421.631,3287.166,1921.109,3107.744,2317.278z"/>
		<g>
			<g>
				<path style="fill:#91B3FA;" d="M1208.84,2090.104c0,0,8.356-351.305-153.453-445.33
					c-161.807-94.025-469.461-152.809-480.993-657.251c-6.752-295.323-14.059-424.443-18.957-480.744
					c-1.91-21.963,17.606-39.69,39.27-35.609c153.245,28.869,651.073,147.695,755.447,487.485
					C1473.89,1361.479,1208.84,2090.104,1208.84,2090.104z"/>
				<path style="fill:#7D97F4;" d="M713.223,611.52c168.218,150.026,362.73,415.542,466.407,681.058
					c13.308,43.759,52.236,136.816,69.141,302.155c15.099,137.895,7.593,283.609-10.715,380.064
					c-1.158,6.098-7.039,10.103-13.137,8.945c-10.485-1.989-9.091-13.267-8.996-12.911c20.909-164.796,12.23-369.912-35.68-554.987
					c-61.209-227.25-197.73-447.577-338.937-634.445l-14.531-18.401C717.373,622.502,694.341,621.467,704.569,611.673
					C706.984,609.36,710.765,609.339,713.223,611.52z"/>
			</g>
			<g>
				<path style="fill:#7D97F4;" d="M1468.87,2765.537c21.892,10.735-207.251-277.414-279.031-729.974
					c-33.824-213.258-34.266-480.452-155.747-583.419c-101.105-85.696-445.151-31.593-557.723-11.032
					c-14.067,2.569-18.802,20.338-7.852,29.535c53.984,45.337,169.467,152.278,199.557,260.054
					c39.661,142.057,174.717,232.413,295.627,256.866c120.91,24.453,188.169,48.184,247.073,241.546
					C1269.678,2422.472,1406.666,2735.036,1468.87,2765.537z"/>
				<path style="fill:#91B3FA;" d="M634.696,1501.133c143.624,6.016,297.794,71.532,376.03,194.428l7.384,11.727
					c17.055,27.498,113.713,222.973,167.396,385.012c0.668,2.02-0.427,4.2-2.446,4.87c-3.431,1.136-5.15-2.64-4.823-2.306
					c-37.402-91.54-91.121-207.598-133.906-294.387c-45.882-94.705-77.991-158.841-182.645-220.275
					c-116.484-66.161-227.767-72.972-227.433-72.904c-1.698-0.174-2.935-1.691-2.761-3.389
					C631.658,1502.274,633.078,1501.068,634.696,1501.133z"/>
			</g>
			<g>
				<path style="fill:#91B3FA;" d="M1370.64,2803.443c12.991,6.85-73.177-141.464-79.789-272.13
					c-6.612-130.667-36.09-353.685-148.771-487.093c-112.681-133.408-236.077-145.579-391.563-24.299
					c-129.571,101.066-210.394,152.071-257.794,161.552c-11.737,2.347-17.727,15.598-12.015,26.116
					c30.402,55.986,116.354,184.586,260.672,175.532c184.088-11.548,407.188-131.219,475.186-31.388
					c67.998,99.83,59.267,155.688,61.356,203C1280.01,2602.044,1284.667,2758.115,1370.64,2803.443z"/>
				<path style="fill:#7D97F4;" d="M802.752,2180.107c56.395-54.066,148.242-107.195,228.513-97.289
					c104.438,16.823,174.009,86.566,211.959,190.384c14.835,44.082,20.938,67.613,29.709,121.648
					c0.701,4.314-5.664,5.604-6.724,1.391c-6.382-25.38-12.704-51.955-22.161-79.441
					c-55.048-177.33-172.557-201.215-177.128-204.844c-8.884,0.877-62.74-39.441-190.533,29.324
					c-23.863,12.989-47.092,27.816-68.9,44.17l-0.121,0.091c-1.578,1.183-3.816,0.864-5-0.715
					C801.272,2183.366,801.465,2181.338,802.752,2180.107z"/>
			</g>
		</g>
		<g>
			<g>
				<g>
					
						<linearGradient id="SVGID_00000072253861246697207970000000661548326935386003_" gradientUnits="userSpaceOnUse" x1="2065.0549" y1="-30.7401" x2="1848.05" y2="3149.7029">
						<stop  offset="0" style="stop-color:#09005D"/>
						<stop  offset="1" style="stop-color:#1A0F91"/>
					</linearGradient>
					<path style="fill:url(#SVGID_00000072253861246697207970000000661548326935386003_);" d="M1204.059,666.496
						c-65.365,5.684-115.48,60.427-115.666,126.039c-1.138,401.242-3.015,1785.232,23.137,2275.087
						c2.771,51.896,45.316,92.663,97.283,93.223c257.029,2.767,996.364,7.851,1416.087-18.997
						c87.422-5.592,155.45-77.997,155.344-165.597c-0.51-421.117-7.238-1605.445-64.924-2146.787
						c-6.912-64.861-59.051-115.489-124.082-120.556C2310.909,687.066,1566.491,634.976,1204.059,666.496z"/>
					
						<linearGradient id="SVGID_00000078762250561590426180000004635671717899004804_" gradientUnits="userSpaceOnUse" x1="1182.8807" y1="1851.9564" x2="2664.0081" y2="1851.9564">
						<stop  offset="0" style="stop-color:#DAE3FE"/>
						<stop  offset="1" style="stop-color:#E9EFFD"/>
					</linearGradient>
					<path style="fill:url(#SVGID_00000078762250561590426180000004635671717899004804_);" d="M1191.567,897.687
						c-5.048,343.227-19.419,1485,5.669,1906.408c3.667,61.594,51.512,110.223,110.59,112.282
						c243.241,8.477,866.994,24.881,1222.419-14.228c64-7.042,112.914-62.516,114.619-129.688
						c8.891-350.262,32.906-1413.691,8.523-1830.387c-3.89-66.475-54.676-119.517-118.338-123.806
						c-263.373-17.747-939.682-58.673-1241.923-33.504C1236.389,789.489,1192.441,838.266,1191.567,897.687z"/>
					
						<linearGradient id="SVGID_00000054967707073136178370000001129896375916940193_" gradientUnits="userSpaceOnUse" x1="1779.1617" y1="728.8599" x2="2052.5564" y2="728.8599">
						<stop  offset="0" style="stop-color:#4F52FF"/>
						<stop  offset="1" style="stop-color:#4042E2"/>
					</linearGradient>
					<path style="fill:url(#SVGID_00000054967707073136178370000001129896375916940193_);" d="M1779.267,726.173
						c0.208,9.482,7.77,17.141,17.25,17.429c46.804,1.422,178.651,5.458,237.583,7.581c11.62,0.419,20.499-10.213,18.047-21.578
						c-0.202-0.358-1.711-14.931-16.594-15.965c-39.864-2.772-160.132-10.245-239.608-5.66
						C1779.625,708.921,1778.738,727.482,1779.267,726.173z"/>
				</g>
			</g>
			<g>
				<g>
					
						<linearGradient id="SVGID_00000170247825599352129710000001758786839426280085_" gradientUnits="userSpaceOnUse" x1="740.4005" y1="2885.6555" x2="392.5067" y2="3411.9561" gradientTransform="matrix(-0.9994 0.0353 -0.0353 -0.9994 2642.8359 4011.554)">
						<stop  offset="0" style="stop-color:#FF928E"/>
						<stop  offset="1" style="stop-color:#FE7062"/>
					</linearGradient>
					<path style="fill:url(#SVGID_00000170247825599352129710000001758786839426280085_);" d="M1854.428,713.205
						c1.664-0.059,3.341,0.312,4.983,1.103l86.939,41.871c6.254,3.012,13.224,4.474,20.159,4.23
						c6.936-0.244,13.786-2.193,19.812-5.637l83.78-47.883c1.582-0.904,3.228-1.392,4.893-1.451c3.067-0.108,6.185,1.25,8.341,3.63
						c1.463,1.616,3.09,4.394,2.541,8.454l-12.956,95.623c-1.899,14.02,3.219,28.068,13.691,37.58l71.428,64.883
						c4.405,4.001,3.611,8.866,3.065,10.772c-0.546,1.906-2.448,6.454-8.303,7.516l-94.947,17.229
						c-13.918,2.525-25.698,11.733-31.51,24.633l-39.635,87.982c-2.444,5.426-7.317,6.174-9.298,6.244
						c-1.981,0.069-6.894-0.334-9.714-5.575l-45.726-84.976c-6.704-12.459-19.102-20.816-33.165-22.355l-95.922-10.507
						c-5.916-0.648-8.133-5.051-8.812-6.914c-0.678-1.863-1.813-6.66,2.3-10.96l66.687-69.747
						c9.777-10.225,13.894-24.598,11.014-38.449l-19.65-94.476c-0.834-4.01,0.595-6.896,1.94-8.611
						C1848.347,714.886,1851.362,713.313,1854.428,713.205z"/>
					<path style="opacity:0.67;fill:#FFFFFF;" d="M2059.835,836.739c1.023-0.036,1.997,0.582,2.366,1.596
						c3.136,8.606,8.378,16.412,15.16,22.573l27.174,24.684c0.992,0.901,1.066,2.437,0.165,3.429
						c-0.901,0.992-2.437,1.066-3.43,0.165l-27.174-24.684c-7.363-6.688-13.054-15.162-16.458-24.505
						c-0.459-1.259,0.19-2.653,1.45-3.112C2059.335,836.795,2059.586,836.747,2059.835,836.739z"/>
					<path style="opacity:0.67;fill:#FFFFFF;" d="M2005.479,759.987c0.872-0.031,1.732,0.412,2.195,1.222
						c0.665,1.164,0.261,2.648-0.903,3.313l-11.215,6.41c-8.635,4.934-18.452,7.728-28.391,8.077
						c-9.938,0.35-19.928-1.746-28.89-6.062c-1.207-0.581-1.715-2.033-1.133-3.24c0.581-1.209,2.032-1.716,3.24-1.134
						c8.256,3.975,17.458,5.907,26.613,5.584c9.155-0.322,18.198-2.895,26.152-7.44l11.215-6.41
						C2004.715,760.104,2005.098,760,2005.479,759.987z"/>
					<path style="opacity:0.67;fill:#FFFFFF;" d="M1886.011,744.885c1.903-0.067,3.83,0.146,5.727,0.654
						c1.295,0.347,2.064,1.677,1.718,2.972c-0.346,1.296-1.675,2.065-2.972,1.719c-4.968-1.328-10.217,0.036-14.04,3.652
						c-3.833,3.624-5.412,8.68-4.332,13.872l10.182,48.959c4.127,19.849-1.773,40.447-15.783,55.099l-34.557,36.144
						c-4.019,4.203-5.231,9.975-3.24,15.439c1.991,5.465,6.63,9.105,12.411,9.738l49.707,5.445
						c20.154,2.206,37.921,14.182,47.529,32.036l23.695,44.035c2.756,5.122,7.871,8.057,13.682,7.852
						c5.812-0.205,10.708-3.492,13.097-8.795l20.539-45.593c8.328-18.485,25.209-31.682,45.156-35.3l49.201-8.928
						c2.935-0.533,5.581-1.863,7.655-3.849c0.969-0.927,2.505-0.894,3.432,0.075c0.927,0.968,0.894,2.505-0.074,3.432
						c-2.763,2.647-6.272,4.418-10.146,5.12l-49.202,8.928c-18.375,3.333-33.924,15.489-41.596,32.518l-20.539,45.592
						c-3.118,6.92-9.767,11.386-17.352,11.653c-7.586,0.267-14.532-3.719-18.129-10.403l-23.695-44.035
						c-8.85-16.447-25.217-27.479-43.782-29.511l-49.707-5.445c-7.545-0.826-13.846-5.771-16.445-12.902
						c-2.598-7.133-0.953-14.971,4.293-20.457l34.557-36.143c12.906-13.497,18.341-32.472,14.539-50.756l-10.183-48.958
						c-1.41-6.778,0.74-13.653,5.75-18.389C1876.713,746.945,1881.288,745.052,1886.011,744.885z"/>
				</g>
				<g>
					
						<linearGradient id="SVGID_00000072958899158038219470000013763756067540167051_" gradientUnits="userSpaceOnUse" x1="1354.3809" y1="796.6725" x2="1598.4963" y2="1137.417">
						<stop  offset="0" style="stop-color:#FF928E"/>
						<stop  offset="1" style="stop-color:#FE7062"/>
					</linearGradient>
					<path style="fill:url(#SVGID_00000072958899158038219470000013763756067540167051_);" d="M1411.741,876.129
						c1.272-0.045,2.554,0.239,3.809,0.843l66.464,32.01c4.78,2.302,10.11,3.42,15.412,3.234c5.302-0.187,10.539-1.677,15.146-4.309
						l64.049-36.607c1.209-0.691,2.468-1.064,3.74-1.109c2.345-0.083,4.729,0.955,6.377,2.775c1.118,1.236,2.362,3.36,1.942,6.464
						l-9.904,73.103c-1.451,10.718,2.461,21.458,10.467,28.729l54.606,49.603c3.368,3.058,2.76,6.777,2.343,8.234
						c-0.418,1.457-1.871,4.934-6.348,5.746l-72.586,13.171c-10.641,1.93-19.646,8.97-24.089,18.832l-30.301,67.261
						c-1.869,4.148-5.594,4.72-7.108,4.774c-1.514,0.053-5.27-0.256-7.426-4.262l-34.957-64.963
						c-5.125-9.525-14.603-15.913-25.354-17.09l-73.332-8.033c-4.523-0.495-6.217-3.861-6.736-5.285
						c-0.519-1.424-1.386-5.091,1.758-8.379l50.982-53.32c7.474-7.817,10.622-18.805,8.419-29.394l-15.022-72.226
						c-0.637-3.066,0.455-5.272,1.483-6.583C1407.092,877.415,1409.396,876.211,1411.741,876.129z"/>
					<path style="opacity:0.67;fill:#FFFFFF;" d="M1568.773,970.57c0.782-0.028,1.526,0.445,1.808,1.22
						c2.398,6.579,6.405,12.547,11.59,17.257l20.775,18.871c0.758,0.689,0.815,1.862,0.126,2.621
						c-0.689,0.759-1.863,0.815-2.621,0.126l-20.775-18.871c-5.628-5.113-9.979-11.591-12.581-18.734
						c-0.351-0.963,0.145-2.028,1.108-2.379C1568.391,970.613,1568.583,970.576,1568.773,970.57z"/>
					<path style="opacity:0.67;fill:#FFFFFF;" d="M1527.218,911.894c0.667-0.024,1.324,0.315,1.678,0.934
						c0.509,0.89,0.2,2.024-0.69,2.532l-8.573,4.9c-6.601,3.772-14.106,5.907-21.705,6.175c-7.598,0.268-15.235-1.335-22.086-4.634
						c-0.923-0.445-1.311-1.554-0.867-2.477c0.444-0.924,1.554-1.312,2.477-0.867c6.311,3.039,13.347,4.515,20.345,4.269
						c6.999-0.246,13.913-2.213,19.993-5.688l8.574-4.9C1526.634,911.983,1526.927,911.904,1527.218,911.894z"/>
					<path style="opacity:0.67;fill:#FFFFFF;" d="M1435.885,900.348c1.455-0.051,2.928,0.112,4.379,0.5
						c0.99,0.265,1.578,1.282,1.313,2.272c-0.265,0.99-1.281,1.579-2.272,1.314c-3.798-1.015-7.811,0.028-10.733,2.792
						c-2.931,2.771-4.138,6.636-3.312,10.606l7.785,37.428c3.155,15.174-1.355,30.921-12.066,42.123l-26.419,27.632
						c-3.073,3.213-3.999,7.625-2.477,11.803c1.521,4.178,5.069,6.961,9.488,7.445l38.001,4.162
						c15.407,1.686,28.99,10.843,36.336,24.492l18.115,33.664c2.107,3.915,6.017,6.159,10.46,6.003
						c4.443-0.156,8.186-2.67,10.012-6.724l15.702-34.855c6.367-14.132,19.272-24.221,34.521-26.987l37.614-6.826
						c2.243-0.407,4.267-1.424,5.852-2.943c0.741-0.709,1.915-0.683,2.624,0.057c0.709,0.74,0.683,1.915-0.057,2.623
						c-2.113,2.023-4.795,3.377-7.757,3.914l-37.614,6.825c-14.047,2.548-25.935,11.841-31.8,24.859l-15.702,34.855
						c-2.384,5.291-7.466,8.705-13.266,8.909c-5.799,0.204-11.109-2.844-13.859-7.953l-18.115-33.664
						c-6.766-12.573-19.279-21.007-33.471-22.561l-38-4.163c-5.768-0.632-10.586-4.411-12.572-9.864
						c-1.987-5.453-0.729-11.445,3.281-15.639l26.419-27.631c9.867-10.319,14.021-24.824,11.115-38.802l-7.784-37.428
						c-1.078-5.182,0.566-10.437,4.396-14.058C1428.778,901.923,1432.274,900.476,1435.885,900.348z"/>
				</g>
				<g>
					
						<linearGradient id="SVGID_00000174567528303183422660000010193853165287802016_" gradientUnits="userSpaceOnUse" x1="1142.1946" y1="1183.2024" x2="1437.1667" y2="1376.46">
						<stop  offset="0" style="stop-color:#FF928E"/>
						<stop  offset="1" style="stop-color:#FE7062"/>
					</linearGradient>
					<path style="fill:url(#SVGID_00000174567528303183422660000010193853165287802016_);" d="M1233.044,1213.049
						c0.796-0.028,1.598,0.149,2.384,0.528l41.592,20.031c2.991,1.441,6.326,2.141,9.644,2.024c3.318-0.117,6.595-1.049,9.478-2.697
						l40.08-22.907c0.756-0.432,1.544-0.666,2.34-0.694c1.467-0.052,2.959,0.598,3.99,1.737c0.7,0.773,1.478,2.102,1.216,4.044
						l-6.198,45.746c-0.908,6.707,1.54,13.427,6.549,17.978l34.171,31.04c2.107,1.914,1.727,4.241,1.466,5.153
						c-0.261,0.912-1.171,3.087-3.972,3.596l-45.422,8.242c-6.658,1.208-12.294,5.613-15.074,11.784l-18.961,42.09
						c-1.169,2.596-3.5,2.954-4.448,2.987c-0.947,0.033-3.298-0.16-4.647-2.667l-21.875-40.652
						c-3.207-5.96-9.139-9.958-15.866-10.695l-45.889-5.026c-2.83-0.31-3.891-2.416-4.216-3.307c-0.324-0.891-0.867-3.186,1.1-5.244
						l31.903-33.366c4.677-4.892,6.647-11.768,5.269-18.394l-9.4-45.197c-0.399-1.919,0.284-3.299,0.928-4.12
						C1230.135,1213.854,1231.577,1213.101,1233.044,1213.049z"/>
					<path style="opacity:0.67;fill:#FFFFFF;" d="M1331.31,1272.147c0.489-0.017,0.955,0.278,1.132,0.764
						c1.5,4.117,4.008,7.851,7.253,10.798l13,11.809c0.474,0.431,0.509,1.165,0.078,1.64c-0.431,0.475-1.166,0.51-1.641,0.079
						l-13-11.809c-3.522-3.2-6.245-7.253-7.873-11.723c-0.22-0.603,0.091-1.269,0.694-1.489
						C1331.071,1272.174,1331.191,1272.151,1331.31,1272.147z"/>
					<path style="opacity:0.67;fill:#FFFFFF;" d="M1305.306,1235.429c0.418-0.015,0.829,0.197,1.05,0.585
						c0.318,0.557,0.125,1.267-0.432,1.585l-5.365,3.066c-4.131,2.361-8.827,3.697-13.582,3.864
						c-4.754,0.168-9.534-0.835-13.821-2.9c-0.578-0.278-0.821-0.973-0.542-1.55c0.278-0.578,0.972-0.821,1.55-0.542
						c3.95,1.901,8.352,2.825,12.731,2.671c4.38-0.154,8.706-1.385,12.511-3.559l5.365-3.067
						C1304.941,1235.485,1305.124,1235.436,1305.306,1235.429z"/>
					<path style="opacity:0.67;fill:#FFFFFF;" d="M1248.153,1228.205c0.91-0.032,1.832,0.07,2.74,0.313
						c0.62,0.166,0.987,0.802,0.822,1.422c-0.166,0.62-0.801,0.988-1.422,0.822c-2.376-0.635-4.887,0.018-6.717,1.747
						c-1.834,1.733-2.589,4.152-2.072,6.636l4.871,23.422c1.974,9.496-0.848,19.349-7.551,26.359l-16.532,17.291
						c-1.923,2.011-2.503,4.772-1.55,7.386c0.952,2.614,3.172,4.355,5.938,4.659l23.78,2.605
						c9.641,1.055,18.141,6.785,22.737,15.326l11.336,21.066c1.318,2.45,3.765,3.855,6.546,3.757
						c2.78-0.098,5.123-1.671,6.265-4.208l9.826-21.811c3.984-8.843,12.06-15.156,21.602-16.888l23.538-4.271
						c1.404-0.255,2.67-0.892,3.662-1.842c0.464-0.444,1.198-0.428,1.642,0.036c0.443,0.463,0.428,1.198-0.036,1.642
						c-1.322,1.266-3,2.113-4.854,2.45l-23.538,4.271c-8.79,1.594-16.229,7.41-19.899,15.557l-9.826,21.811
						c-1.491,3.31-4.672,5.447-8.301,5.574c-3.629,0.128-6.952-1.779-8.673-4.977l-11.335-21.066
						c-4.234-7.868-12.064-13.146-20.945-14.118l-23.779-2.605c-3.609-0.395-6.624-2.76-7.867-6.172
						c-1.243-3.412-0.457-7.162,2.053-9.787l16.532-17.291c6.175-6.457,8.775-15.534,6.956-24.281l-4.871-23.421
						c-0.674-3.243,0.354-6.532,2.751-8.797C1243.705,1229.19,1245.893,1228.285,1248.153,1228.205z"/>
				</g>
				<g>
					
						<linearGradient id="SVGID_00000076564560530096049370000015944624978461157789_" gradientUnits="userSpaceOnUse" x1="2087.8738" y1="1059.4116" x2="2459.8916" y2="719.1157" gradientTransform="matrix(0.9963 0.0864 -0.0864 0.9963 194.7525 -14.4715)">
						<stop  offset="0" style="stop-color:#FF928E"/>
						<stop  offset="1" style="stop-color:#FE7062"/>
					</linearGradient>
					<path style="fill:url(#SVGID_00000076564560530096049370000015944624978461157789_);" d="M2511.226,926.796
						c-1.273-0.006-2.546,0.316-3.782,0.959l-65.458,34.022c-4.708,2.447-10.001,3.727-15.306,3.702
						c-5.305-0.025-10.585-1.355-15.27-3.845l-65.136-34.637c-1.23-0.654-2.499-0.988-3.772-0.994
						c-2.346-0.011-4.698,1.099-6.289,2.968c-1.079,1.269-2.259,3.43-1.744,6.52l12.128,72.767
						c1.778,10.669-1.805,21.523-9.585,29.035l-53.069,51.245c-3.272,3.159-2.552,6.858-2.091,8.302
						c0.462,1.444,2.021,4.875,6.521,5.55l72.954,10.952c10.694,1.605,19.91,8.367,24.652,18.088l32.337,66.306
						c1.994,4.089,5.735,4.548,7.25,4.555c1.515,0.007,5.26-0.416,7.292-4.487l32.96-65.999
						c4.833-9.677,14.112-16.351,24.821-17.855l73.053-10.265c4.506-0.633,6.097-4.05,6.572-5.488
						c0.475-1.439,1.23-5.131-2.013-8.322l-52.584-51.741c-7.709-7.585-11.19-18.473-9.312-29.124l12.813-72.65
						c0.543-3.084-0.615-5.256-1.683-6.535C2515.912,927.939,2513.572,926.807,2511.226,926.796z"/>
					<path style="opacity:0.67;fill:#FFFFFF;" d="M2357.146,1025.981c-0.782-0.004-1.512,0.491-1.771,1.274
						c-2.195,6.65-6.019,12.737-11.058,17.602l-20.19,19.496c-0.737,0.712-0.757,1.886-0.046,2.624
						c0.712,0.737,1.886,0.758,2.624,0.046l20.189-19.496c5.47-5.282,9.621-11.89,12.004-19.109c0.322-0.973-0.207-2.022-1.18-2.344
						C2357.53,1026.012,2357.336,1025.982,2357.146,1025.981z"/>
					<path style="opacity:0.67;fill:#FFFFFF;" d="M2396.893,966.065c-0.667-0.003-1.314,0.355-1.649,0.985
						c-0.481,0.905-0.138,2.029,0.767,2.51l8.719,4.636c6.713,3.569,14.28,5.475,21.882,5.511
						c7.602,0.036,15.187-1.799,21.935-5.306c0.909-0.472,1.263-1.593,0.791-2.502c-0.472-0.91-1.594-1.264-2.503-0.791
						c-6.216,3.23-13.203,4.92-20.205,4.887c-7.003-0.033-13.974-1.788-20.157-5.076l-8.719-4.636
						C2397.479,966.136,2397.184,966.066,2396.893,966.065z"/>
					<path style="opacity:0.67;fill:#FFFFFF;" d="M2487.831,951.74c-1.456-0.007-2.923,0.201-4.361,0.633
						c-0.982,0.295-1.538,1.33-1.243,2.311c0.294,0.982,1.328,1.539,2.311,1.244c3.765-1.13,7.808-0.21,10.813,2.463
						c3.014,2.68,4.338,6.506,3.633,10.5l-6.64,37.648c-2.691,15.263,2.297,30.865,13.345,41.736l27.25,26.813
						c3.169,3.118,4.229,7.5,2.835,11.722c-1.394,4.222-4.854,7.112-9.257,7.73l-37.856,5.319
						c-15.348,2.155-28.646,11.722-35.572,25.588l-17.08,34.201c-1.987,3.978-5.827,6.34-10.272,6.319
						c-4.446-0.021-8.264-2.419-10.213-6.415l-16.757-34.36c-6.795-13.931-20.001-23.622-35.328-25.921l-37.805-5.675
						c-2.255-0.339-4.308-1.294-5.939-2.763c-0.762-0.686-1.934-0.625-2.621,0.137c-0.686,0.761-0.625,1.935,0.136,2.621
						c2.174,1.958,4.896,3.229,7.873,3.676l37.805,5.675c14.118,2.119,26.284,11.045,32.543,23.879l16.757,34.36
						c2.544,5.215,7.729,8.472,13.531,8.5c5.803,0.027,11.018-3.181,13.611-8.372l17.08-34.201
						c6.379-12.774,18.629-21.585,32.767-23.571l37.855-5.32c5.746-0.807,10.446-4.732,12.265-10.242
						c1.819-5.511,0.38-11.462-3.757-15.532l-27.249-26.813c-10.176-10.013-14.772-24.385-12.293-38.445l6.64-37.648
						c0.919-5.212-0.883-10.416-4.822-13.918C2494.983,953.098,2491.444,951.758,2487.831,951.74z"/>
				</g>
				<g>
					
						<linearGradient id="SVGID_00000109742691164899043100000010482756449535776166_" gradientUnits="userSpaceOnUse" x1="2380.6501" y1="1215.5314" x2="2628.6628" y2="950.2152" gradientTransform="matrix(0.9963 0.0864 -0.0864 0.9963 194.7525 -14.4715)">
						<stop  offset="0" style="stop-color:#FF928E"/>
						<stop  offset="1" style="stop-color:#FE7062"/>
					</linearGradient>
					<path style="fill:url(#SVGID_00000109742691164899043100000010482756449535776166_);" d="M2671.708,1191.111
						c-0.796-0.004-1.593,0.198-2.366,0.6l-40.961,21.29c-2.946,1.531-6.258,2.332-9.578,2.317c-3.32-0.016-6.624-0.848-9.555-2.406
						l-40.76-21.675c-0.77-0.409-1.564-0.619-2.361-0.622c-1.468-0.007-2.939,0.688-3.935,1.858
						c-0.675,0.794-1.414,2.146-1.092,4.08l7.59,45.535c1.112,6.676-1.13,13.468-5.999,18.17l-33.209,32.067
						c-2.048,1.977-1.597,4.292-1.308,5.195c0.289,0.904,1.265,3.05,4.08,3.473l45.652,6.853
						c6.692,1.004,12.459,5.235,15.426,11.319l20.236,41.492c1.248,2.559,3.589,2.846,4.537,2.85
						c0.948,0.004,3.292-0.26,4.564-2.807l20.625-41.3c3.024-6.055,8.831-10.232,15.533-11.173l45.714-6.423
						c2.82-0.396,3.815-2.534,4.113-3.435c0.297-0.9,0.769-3.211-1.26-5.208l-32.905-32.378c-4.824-4.747-7.002-11.56-5.827-18.225
						l8.018-45.462c0.34-1.93-0.385-3.289-1.053-4.089C2674.64,1191.826,2673.176,1191.117,2671.708,1191.111z"/>
					<path style="opacity:0.67;fill:#FFFFFF;" d="M2575.29,1253.178c-0.49-0.003-0.946,0.307-1.108,0.798
						c-1.374,4.161-3.767,7.97-6.92,11.015l-12.634,12.2c-0.461,0.445-0.474,1.18-0.028,1.642c0.445,0.462,1.18,0.474,1.642,0.029
						l12.634-12.2c3.423-3.306,6.021-7.441,7.512-11.958c0.201-0.609-0.129-1.266-0.738-1.467
						C2575.53,1253.197,2575.409,1253.178,2575.29,1253.178z"/>
					<path style="opacity:0.67;fill:#FFFFFF;" d="M2600.162,1215.684c-0.418-0.002-0.822,0.222-1.032,0.616
						c-0.301,0.567-0.086,1.27,0.48,1.571l5.456,2.902c4.201,2.233,8.936,3.426,13.693,3.448c4.758,0.023,9.504-1.126,13.727-3.32
						c0.568-0.296,0.79-0.997,0.495-1.566c-0.296-0.57-0.997-0.791-1.566-0.495c-3.89,2.021-8.262,3.079-12.644,3.058
						c-4.383-0.021-8.744-1.119-12.614-3.177l-5.456-2.901C2600.529,1215.729,2600.344,1215.685,2600.162,1215.684z"/>
					<path style="opacity:0.67;fill:#FFFFFF;" d="M2657.068,1206.72c-0.911-0.004-1.829,0.126-2.729,0.396
						c-0.614,0.185-0.962,0.832-0.778,1.446c0.184,0.614,0.831,0.963,1.446,0.779c2.356-0.708,4.886-0.132,6.767,1.542
						c1.886,1.677,2.715,4.071,2.274,6.57l-4.155,23.559c-1.683,9.551,1.438,19.314,8.351,26.116l17.052,16.779
						c1.983,1.952,2.647,4.693,1.774,7.335c-0.872,2.642-3.038,4.45-5.792,4.838l-23.69,3.328
						c-9.604,1.349-17.926,7.335-22.26,16.012l-10.688,21.402c-1.243,2.489-3.646,3.968-6.428,3.954
						c-2.782-0.013-5.171-1.514-6.391-4.014l-10.486-21.502c-4.252-8.717-12.516-14.782-22.107-16.22l-23.657-3.552
						c-1.411-0.212-2.696-0.81-3.717-1.729c-0.477-0.429-1.211-0.391-1.64,0.086c-0.429,0.476-0.391,1.211,0.085,1.64
						c1.36,1.225,3.063,2.021,4.927,2.3l23.657,3.551c8.835,1.326,16.448,6.911,20.365,14.942l10.486,21.502
						c1.592,3.264,4.836,5.302,8.468,5.319c3.631,0.017,6.895-1.991,8.517-5.239l10.688-21.402
						c3.992-7.994,11.657-13.508,20.505-14.75l23.689-3.329c3.595-0.505,6.537-2.961,7.676-6.409
						c1.138-3.449,0.237-7.172-2.352-9.719l-17.052-16.779c-6.368-6.266-9.244-15.26-7.692-24.058l4.155-23.559
						c0.575-3.262-0.553-6.517-3.018-8.709C2661.544,1207.569,2659.329,1206.731,2657.068,1206.72z"/>
				</g>
			</g>
			<g>
				<path style="fill:#7D97F4;" d="M2554.648,2728.591H1282.332c-9.772,0-17.694-7.922-17.694-17.694V1475.263
					c0-9.772,7.922-17.694,17.694-17.694h1272.317c9.772,0,17.694,7.922,17.694,17.694v1235.634
					C2572.342,2720.669,2564.42,2728.591,2554.648,2728.591z"/>
				<g>
					<path style="fill:#BDD0FB;" d="M2247.703,1596.601h-595.747c-3.438,0-6.225-2.787-6.225-6.225v-65.285
						c0-3.438,2.787-6.225,6.225-6.225h595.747c3.438,0,6.225,2.787,6.225,6.225v65.285
						C2253.928,1593.814,2251.141,1596.601,2247.703,1596.601z"/>
					<path style="fill:#BDD0FB;" d="M2507.751,1756.513H1346.408c-3.438,0-6.225-2.787-6.225-6.225v-58.622
						c0-3.438,2.787-6.225,6.225-6.225h1161.342c3.438,0,6.225,2.787,6.225,6.225v58.622
						C2513.976,1753.726,2511.189,1756.513,2507.751,1756.513z"/>
					<path style="fill:#BDD0FB;" d="M2080.409,1916.425h-737.636c-3.438,0-6.225-2.787-6.225-6.225v-58.622
						c0-3.438,2.787-6.225,6.225-6.225h737.636c3.438,0,6.225,2.787,6.225,6.225v58.622
						C2086.635,1913.638,2083.847,1916.425,2080.409,1916.425z"/>
					<path style="fill:#BDD0FB;" d="M2473.882,2078.712H1348.226c-3.438,0-6.225-2.787-6.225-6.225v-58.622
						c0-3.438,2.787-6.225,6.225-6.225h1125.656c3.438,0,6.225,2.787,6.225,6.225v58.622
						C2480.107,2075.924,2477.32,2078.712,2473.882,2078.712z"/>
					<path style="fill:#BDD0FB;" d="M2275.221,2238.624h-930.631c-3.438,0-6.225-2.787-6.225-6.225v-58.622
						c0-3.438,2.787-6.225,6.225-6.225h930.631c3.438,0,6.225,2.787,6.225,6.225v58.622
						C2281.447,2235.837,2278.66,2238.624,2275.221,2238.624z"/>
					<path style="fill:#BDD0FB;" d="M2511.386,2409.677H1350.044c-3.438,0-6.225-2.787-6.225-6.225v-58.622
						c0-3.438,2.787-6.225,6.225-6.225h1161.342c3.438,0,6.225,2.787,6.225,6.225v58.622
						C2517.611,2406.89,2514.824,2409.677,2511.386,2409.677z"/>
					<path style="fill:#BDD0FB;" d="M2027.46,2569.59h-681.052c-3.438,0-6.225-2.787-6.225-6.225v-58.622
						c0-3.438,2.787-6.225,6.225-6.225h681.052c3.438,0,6.225,2.787,6.225,6.225v58.622
						C2033.686,2566.802,2030.899,2569.59,2027.46,2569.59z"/>
				</g>
			</g>
		</g>
		<g>
			<g>
				<g>
					
						<linearGradient id="SVGID_00000137815926281635872430000004178815696834359944_" gradientUnits="userSpaceOnUse" x1="-2706.7903" y1="3208.5181" x2="-2533.0483" y2="3208.5181" gradientTransform="matrix(-1 0 0 1 83.0112 0)">
						<stop  offset="0" style="stop-color:#4F52FF"/>
						<stop  offset="1" style="stop-color:#4042E2"/>
					</linearGradient>
					<path style="fill:url(#SVGID_00000137815926281635872430000004178815696834359944_);" d="M2620.966,3200.115
						c29.764,2.573,81.421,6.752,122.145,8.544c24.48,1.078,38.574-1.32,46.691-4.569c-0.014,0.915-0.039,1.78-0.075,2.583
						c-0.193,4.285-3.675,7.714-8.003,7.955c-76.95,4.295-138.149,1.486-159.936,0.16c-4.505-0.274-7.19-5.17-4.886-9.01
						C2618.054,3203.857,2619.45,3201.975,2620.966,3200.115z"/>
					
						<linearGradient id="SVGID_00000039841641722299001410000017104000956722151856_" gradientUnits="userSpaceOnUse" x1="-2706.8" y1="3174.4668" x2="-2537.9543" y2="3174.4668" gradientTransform="matrix(-1 0 0 1 83.0112 0)">
						<stop  offset="0" style="stop-color:#09005D"/>
						<stop  offset="1" style="stop-color:#1A0F91"/>
					</linearGradient>
					<path style="fill:url(#SVGID_00000039841641722299001410000017104000956722151856_);" d="M2743.111,3208.659
						c-40.724-1.792-92.381-5.971-122.145-8.544c29.263-35.903,122.145-60.101,122.145-60.101h26.233
						c18.042,26.008,20.655,50.77,20.458,64.076C2781.685,3207.339,2767.591,3209.736,2743.111,3208.659z"/>
					
						<linearGradient id="SVGID_00000164475643756700720940000008715594457302579115_" gradientUnits="userSpaceOnUse" x1="-2690.7498" y1="3126.9268" x2="-2641.8103" y2="3126.9268" gradientTransform="matrix(-1 0 0 1 83.0112 0)">
						<stop  offset="0" style="stop-color:#FEBBBA"/>
						<stop  offset="1" style="stop-color:#FF928E"/>
					</linearGradient>
					<path style="fill:url(#SVGID_00000164475643756700720940000008715594457302579115_);" d="M2773.761,3097.187l-2.455,48.578
						c-0.266,5.26-4.204,9.681-9.472,10.435c-5.242,0.75-12.262,0.845-19.706-1.633c-4.58-1.524-7.98-5.383-8.824-10.09
						l-8.483-47.29H2773.761z"/>
				</g>
				<g>
					<g>
						
							<linearGradient id="SVGID_00000181050861968397164670000000364531379490073728_" gradientUnits="userSpaceOnUse" x1="-3053.1594" y1="3204.771" x2="-2986.5786" y2="3204.771" gradientTransform="matrix(-1 0 0 1 83.0112 0)">
							<stop  offset="0" style="stop-color:#4F52FF"/>
							<stop  offset="1" style="stop-color:#4042E2"/>
						</linearGradient>
						<path style="fill:url(#SVGID_00000181050861968397164670000000364531379490073728_);" d="M3114.49,3208.294
							c12.907-1.8,18.747-8.505,21.196-15.674c0.016,0.065,0.032,0.129,0.049,0.193c1.899,7.562-2.503,15.399-11.305,19.126
							c-10.638,4.505-22.269,5.272-31.299,4.9c-9.688-0.399-18.58-4.408-23.468-10.824l-0.073-0.096
							C3079.314,3210.73,3092.965,3211.296,3114.49,3208.294z"/>
						
							<linearGradient id="SVGID_00000146486679696981055970000017538731717461822363_" gradientUnits="userSpaceOnUse" x1="-3052.675" y1="3153.5059" x2="-2954.9475" y2="3153.5059" gradientTransform="matrix(-1 0 0 1 83.0112 0)">
							<stop  offset="0" style="stop-color:#09005D"/>
							<stop  offset="1" style="stop-color:#1A0F91"/>
						</linearGradient>
						<path style="fill:url(#SVGID_00000146486679696981055970000017538731717461822363_);" d="M3053.634,3096.875h21.634
							c32.953-0.673,53.646,68.83,60.419,95.745c-2.449,7.168-8.289,13.874-21.196,15.674c-21.526,3.002-35.176,2.436-44.9-2.376
							c-17.803-23.427-26.629-57.739-30.871-77.763C3033.893,3105.382,3053.634,3096.875,3053.634,3096.875z"/>
					</g>
					
						<linearGradient id="SVGID_00000018953526867624067430000002997894451582025653_" gradientUnits="userSpaceOnUse" x1="-3001.8779" y1="3086.1289" x2="-2943.3901" y2="3086.1289" gradientTransform="matrix(-1 0 0 1 83.0112 0)">
						<stop  offset="0" style="stop-color:#FEBBBA"/>
						<stop  offset="1" style="stop-color:#FF928E"/>
					</linearGradient>
					<path style="fill:url(#SVGID_00000018953526867624067430000002997894451582025653_);" d="M3072.487,3051.787l12.013,47.779
						c1.473,5.858-1.331,11.918-6.747,14.697c-6.72,3.448-16.182,7.073-24.877,6.023c-4.089-0.493-7.487-3.374-8.837-7.224
						l-17.636-50.269L3072.487,3051.787z"/>
				</g>
				
					<linearGradient id="SVGID_00000147195420176035846070000017285219169129817733_" gradientUnits="userSpaceOnUse" x1="3601.1113" y1="2378.5261" x2="3219.6821" y2="2571.7834">
					<stop  offset="0" style="stop-color:#4F52FF"/>
					<stop  offset="1" style="stop-color:#4042E2"/>
				</linearGradient>
				<path style="fill:url(#SVGID_00000147195420176035846070000017285219169129817733_);" d="M3086.816,3065.597
					c-14.946,13.258-63.56,15.008-63.56,15.008c-175.114-420.291-246.748-480-246.748-480c25.285,158.637,4.077,509.84,4.077,509.84
					c-28.897,12.751-66.152,0-66.152,0c-2.347-259.71-42.266-486.202-89.423-664.764c118.356-2.66,181.297-43.161,201.848-59.417
					C2925.516,2545.321,3086.816,3065.597,3086.816,3065.597z"/>
				
					<linearGradient id="SVGID_00000157986598914912251690000013351021801335011482_" gradientUnits="userSpaceOnUse" x1="14260.8789" y1="-16244.209" x2="13738.7168" y2="-15674.5771" gradientTransform="matrix(-1 0 0 1 83.0112 0)">
					<stop  offset="0" style="stop-color:#FF928E"/>
					<stop  offset="1" style="stop-color:#FE7062"/>
				</linearGradient>
				<path style="fill:url(#SVGID_00000157986598914912251690000013351021801335011482_);" d="M2796.8,1902.929
					c22.402,111.743,14.373,311.741,9.1,402.966c-1.482,25.641,16.417,61.186,30.884,85.436c2.269,3.804,0.868,8.674-3.071,10.698
					c-24.221,12.449-106.28,51.031-201.383,55.831c-6.341,0.32-12.003-3.999-13.646-10.133
					c-70.545-263.407-152.484-431.726-152.484-431.726C2556.664,1871.54,2796.8,1902.929,2796.8,1902.929z"/>
				
					<linearGradient id="SVGID_00000001650544694819860030000000523378700265177745_" gradientUnits="userSpaceOnUse" x1="-2804.7815" y1="2869.5303" x2="-2776.7559" y2="2813.4788" gradientTransform="matrix(-1 0 0 1 83.0112 0)">
					<stop  offset="0" style="stop-color:#53D8FF"/>
					<stop  offset="1" style="stop-color:#3840F7"/>
				</linearGradient>
				<path style="fill:url(#SVGID_00000001650544694819860030000000523378700265177745_);" d="M2764.559,2590.655
					c0.994,0,2.002-0.268,2.914-0.822c2.642-1.615,3.48-5.061,1.873-7.7c-0.942-1.55-23.594-38.162-69.432-60.278
					c-2.785-1.336-6.14-0.181-7.49,2.613c-1.344,2.788-0.175,6.145,2.615,7.487c42.733,20.62,64.511,55.661,64.728,56.011
					C2760.824,2589.697,2762.67,2590.655,2764.559,2590.655z"/>
				<g>
					
						<linearGradient id="SVGID_00000157293438229047597640000007410183311231216058_" gradientUnits="userSpaceOnUse" x1="-2733.9189" y1="2233.5952" x2="-2942.1252" y2="2417.9666" gradientTransform="matrix(-1 0 0 1 83.0112 0)">
						<stop  offset="0" style="stop-color:#FEBBBA"/>
						<stop  offset="1" style="stop-color:#FF928E"/>
					</linearGradient>
					<path style="fill:url(#SVGID_00000157293438229047597640000007410183311231216058_);" d="M2937.317,2223.629
						c-7.196,52.056-28.456,108.835-70.986,169.147l-16.167-13.18c0,0,18.664-75.722,8.053-161.659
						C2884.452,2212.819,2915.437,2218.094,2937.317,2223.629z"/>
					
						<linearGradient id="SVGID_00000154403435411176749000000015286626584600679079_" gradientUnits="userSpaceOnUse" x1="14136.5078" y1="-16358.2061" x2="13614.3477" y2="-15788.5752" gradientTransform="matrix(-1 0 0 1 83.0112 0)">
						<stop  offset="0" style="stop-color:#FF928E"/>
						<stop  offset="1" style="stop-color:#FE7062"/>
					</linearGradient>
					<path style="fill:url(#SVGID_00000154403435411176749000000015286626584600679079_);" d="M2771.778,2040.805l25.022-137.876
						c0,0,167.182,127.792,140.517,320.7c-21.88-5.534-52.865-10.81-79.1-5.692
						C2850.573,2156.031,2827.743,2088.827,2771.778,2040.805z"/>
				</g>
				<g>
					
						<linearGradient id="SVGID_00000052097536328752492210000015050846337699977902_" gradientUnits="userSpaceOnUse" x1="14390.9629" y1="-16124.9766" x2="13868.8027" y2="-15555.3457" gradientTransform="matrix(-1 0 0 1 83.0112 0)">
						<stop  offset="0" style="stop-color:#FF928E"/>
						<stop  offset="1" style="stop-color:#FE7062"/>
					</linearGradient>
					<path style="fill:url(#SVGID_00000052097536328752492210000015050846337699977902_);" d="M2466.2,2016.002l64.532,138.979
						c-10.434,83.906-55.508,120.186-104.109,134.101c-3.031-38.24-12.7-69.135-21.672-90.506
						C2467.05,2134.462,2466.2,2016.002,2466.2,2016.002z"/>
					
						<linearGradient id="SVGID_00000145774289952077147880000004436737816115859858_" gradientUnits="userSpaceOnUse" x1="-2343.6123" y1="2251.0347" x2="-2179.6414" y2="2251.0347" gradientTransform="matrix(-1 0 0 1 83.0112 0)">
						<stop  offset="0" style="stop-color:#FEBBBA"/>
						<stop  offset="1" style="stop-color:#FF928E"/>
					</linearGradient>
					<path style="fill:url(#SVGID_00000145774289952077147880000004436737816115859858_);" d="M2404.951,2198.576
						c8.972,21.371,18.642,52.265,21.672,90.506c-129.666,50.308-163.971-47.259-163.971-47.259l23.964-4.228
						C2340.733,2243.297,2378.534,2225.851,2404.951,2198.576z"/>
				</g>
				
					<linearGradient id="SVGID_00000068676922470068935250000009680745184848982945_" gradientUnits="userSpaceOnUse" x1="-2502.9961" y1="1812.845" x2="-2504.7869" y2="2119.0483" gradientTransform="matrix(-1 0 0 1 83.0112 0)">
					<stop  offset="0" style="stop-color:#FEBBBA"/>
					<stop  offset="1" style="stop-color:#FF928E"/>
				</linearGradient>
				<path style="fill:url(#SVGID_00000068676922470068935250000009680745184848982945_);" d="M2525.656,1844.421l31.154,114.526
					c3.5,12.866,17.416,19.775,29.797,14.825c13.36-5.341,30.311-12.631,44.903-20.51c15.576-8.41,20.449-28.446,10.59-43.147
					l-64.771-96.578L2525.656,1844.421z"/>
			</g>
			<g>
				
					<linearGradient id="SVGID_00000097501582321244667310000017153236468836023987_" gradientUnits="userSpaceOnUse" x1="-2704.6946" y1="2886.9402" x2="-2855.4219" y2="3086.3403" gradientTransform="matrix(-0.9897 -0.1428 -0.1428 0.9897 222.066 -1480.9402)">
					<stop  offset="0" style="stop-color:#FEBBBA"/>
					<stop  offset="1" style="stop-color:#FF928E"/>
				</linearGradient>
				<path style="fill:url(#SVGID_00000097501582321244667310000017153236468836023987_);" d="M2457.497,1757.408
					c-0.284,1.967,25.985,130.693,25.985,130.693l73.182-16.561l-6.771-125.704
					C2549.893,1745.835,2462.248,1724.483,2457.497,1757.408z"/>
				
					<linearGradient id="SVGID_00000096773540723932415490000006040494048740945847_" gradientUnits="userSpaceOnUse" x1="2203.0691" y1="1337.7878" x2="2722.3684" y2="2098.9521">
					<stop  offset="0" style="stop-color:#09005D"/>
					<stop  offset="1" style="stop-color:#1A0F91"/>
				</linearGradient>
				<path style="fill:url(#SVGID_00000096773540723932415490000006040494048740945847_);" d="M2533.433,1773.847l8.746,65.894
					c0.112,0.845,0.111,1.68-0.01,2.524c-0.738,5.165-4.58,22.749-22.331,17.721c-16.107-4.563-30.874-8.487-41.075-5.367
					c-4.58,1.401-7.344,6.04-6.385,10.733c2.39,11.695,8.262,37.949,16.844,59.98c1.741,4.471,6.637,6.818,11.244,5.475
					c13.88-4.047,42.913-13.399,64.508-26.395c2.926-1.761,4.669-4.943,4.525-8.355c-0.702-16.635-2.647-67.202-1.01-81.377
					c1.537-13.304,17.865-21.275,24.96-24.133c2.326-0.937,4.149-2.769,5.079-5.099c3.285-8.232,7.814-27.283-16.193-35.089
					c-5.025-1.634-7.673-7.051-5.887-12.023c3.555-9.899,5.055-25.006-13.517-33.329c-18.877-8.46-32.975,1.603-40.587,9.781
					c-3.078,3.307-8.017,3.811-11.836,1.398c-2.174-1.374-4.975-1.824-8.359,0.284c-4.56,2.841-10.599,0.905-12.952-3.925
					c-4.521-9.279-13.734-19.218-32.214-16.053c-32.793,5.616-36.508,41.956-27.857,63.251c8.651,21.295,43.859,13.185,61.521,2.449
					c13.429-8.162,30.849,0.393,38.428,4.963C2531.476,1768.602,2533.064,1771.068,2533.433,1773.847z"/>
				
					<linearGradient id="SVGID_00000157288879625592369130000008074899733249046417_" gradientUnits="userSpaceOnUse" x1="-2925.4509" y1="3044.8496" x2="-2804.5552" y2="2920.814" gradientTransform="matrix(-0.9897 -0.1428 -0.1428 0.9897 222.066 -1480.9402)">
					<stop  offset="0" style="stop-color:#FEBBBA"/>
					<stop  offset="1" style="stop-color:#FF928E"/>
				</linearGradient>
				<path style="fill:url(#SVGID_00000157288879625592369130000008074899733249046417_);" d="M2571.436,1838.704
					c0,0-13.481-37.752,0.369-46.998c13.851-9.245,34.365-4.445,29.848,22.903
					C2596.035,1848.628,2571.436,1838.704,2571.436,1838.704z"/>
			</g>
			
				<linearGradient id="SVGID_00000124155281952244580550000000964263644309699770_" gradientUnits="userSpaceOnUse" x1="-2197.0618" y1="2231.7773" x2="-2138.3423" y2="2231.7773" gradientTransform="matrix(-1 0 0 1 83.0112 0)">
				<stop  offset="0" style="stop-color:#FEBBBA"/>
				<stop  offset="1" style="stop-color:#FF928E"/>
			</linearGradient>
			<path style="fill:url(#SVGID_00000124155281952244580550000000964263644309699770_);" d="M2272.265,2259.675
				c-6.527,5.099-28.887-5.546-42.57-12.906c-6.668-3.587-9.898-11.384-7.609-18.602c3.293-10.384,8.78-23.787,15.54-25.477
				C2248.842,2199.885,2299.16,2238.663,2272.265,2259.675z"/>
			<g>
				<g>
					
						<linearGradient id="SVGID_00000029727964415013745180000017738657627924464566_" gradientUnits="userSpaceOnUse" x1="-1705.6925" y1="2001.9165" x2="-3597.3428" y2="3381.8425" gradientTransform="matrix(-0.9988 0.0481 0.0481 0.9988 47.8151 41.7571)">
						<stop  offset="0" style="stop-color:#09005D"/>
						<stop  offset="1" style="stop-color:#1A0F91"/>
					</linearGradient>
					<path style="fill:url(#SVGID_00000029727964415013745180000017738657627924464566_);" d="M3210.279,2504.518L1885.333,2104.03
						l-59.689,194.759l1325.119,413.45c28.145,8.781,58.47-3.924,72.063-30.086c13.962-26.874,26.54-68.418,24.468-129.636
						C3246.541,2530.261,3231.596,2510.962,3210.279,2504.518z"/>
					<g>
						
							<linearGradient id="SVGID_00000062193550595330431850000007351743096036944263_" gradientUnits="userSpaceOnUse" x1="-1639.3538" y1="2309.0601" x2="-1390.1869" y2="2092.4763" gradientTransform="matrix(-0.9988 0.0481 0.0481 0.9988 47.8151 41.7571)">
							<stop  offset="0" style="stop-color:#09005D"/>
							<stop  offset="1" style="stop-color:#1A0F91"/>
						</linearGradient>
						<path style="fill:url(#SVGID_00000062193550595330431850000007351743096036944263_);" d="M1479.959,2073.978l181,13.418
							c1.004,24.774-5.561,57.205-31.24,95.284l-155.046-91.883C1466.441,2085.919,1470.417,2073.271,1479.959,2073.978z"/>
						
							<linearGradient id="SVGID_00000086661355708780005670000009111579050853392534_" gradientUnits="userSpaceOnUse" x1="-1421.5072" y1="1991.1669" x2="-2344.0723" y2="2939.2883" gradientTransform="matrix(-0.9988 0.0481 0.0481 0.9988 47.8151 41.7571)">
							<stop  offset="0" style="stop-color:#FF928E"/>
							<stop  offset="1" style="stop-color:#FE7062"/>
						</linearGradient>
						<path style="fill:url(#SVGID_00000086661355708780005670000009111579050853392534_);" d="M1885.333,2104.03
							c14.026,119.576-59.689,194.759-59.689,194.759l-195.925-116.109c25.678-38.079,32.244-70.51,31.24-95.284L1885.333,2104.03z"
							/>
					</g>
				</g>
				
					<linearGradient id="SVGID_00000004517102905906432520000011073316984077743011_" gradientUnits="userSpaceOnUse" x1="-1984.1238" y1="2018.8168" x2="-2816.6873" y2="2874.4434" gradientTransform="matrix(-0.9988 0.0481 0.0481 0.9988 47.8151 41.7571)">
					<stop  offset="0" style="stop-color:#FF928E"/>
					<stop  offset="1" style="stop-color:#FE7062"/>
				</linearGradient>
				<path style="fill:url(#SVGID_00000004517102905906432520000011073316984077743011_);" d="M3196.95,2564.001
					c1.578-0.076,3.008-1.127,3.485-2.728c0.611-2.027-0.542-4.164-2.569-4.771l-1267.484-380.361
					c-2.034-0.606-4.168,0.542-4.771,2.569c-0.611,2.027,0.542,4.164,2.569,4.771l1267.484,380.361
					C3196.094,2563.971,3196.527,2564.021,3196.95,2564.001z"/>
				
					<linearGradient id="SVGID_00000181768808585666724140000000440395381403207318_" gradientUnits="userSpaceOnUse" x1="-1962.6012" y1="2094.0105" x2="-2795.1665" y2="2949.6392" gradientTransform="matrix(-0.9988 0.0481 0.0481 0.9988 47.8151 41.7571)">
					<stop  offset="0" style="stop-color:#FF928E"/>
					<stop  offset="1" style="stop-color:#FE7062"/>
				</linearGradient>
				<path style="fill:url(#SVGID_00000181768808585666724140000000440395381403207318_);" d="M3179.071,2640.143
					c1.578-0.076,3.008-1.127,3.485-2.728c0.611-2.027-0.542-4.164-2.569-4.771L1912.503,2252.28
					c-2.034-0.606-4.164,0.538-4.771,2.569c-0.611,2.027,0.542,4.164,2.568,4.771l1267.484,380.365
					C3178.215,2640.113,3178.648,2640.163,3179.071,2640.143z"/>
			</g>
			
				<linearGradient id="SVGID_00000082342867523561300040000008605025996482177681_" gradientUnits="userSpaceOnUse" x1="-2651.698" y1="2326.4456" x2="-2859.9041" y2="2510.8167" gradientTransform="matrix(-1 0 0 1 83.0112 0)">
				<stop  offset="0" style="stop-color:#FEBBBA"/>
				<stop  offset="1" style="stop-color:#FF928E"/>
			</linearGradient>
			<path style="fill:url(#SVGID_00000082342867523561300040000008605025996482177681_);" d="M2856.83,2377.3l-75.468-6.15
				l-32.683,30.128c0,0,7.732,10.688,31.906,4.545c24.174-6.144,57.287-7.651,57.287-7.651s33.372,15.045,33.779-13.105
				L2856.83,2377.3z"/>
		</g>
	</g>
</g>
</svg>
